# xmcd
#
# Track frame offsets:
#	150
#	8589
#	21097
#	29669
#	43269
#	54067
#	64615
#	73918
#	85424
#	93448
#	105053
#	114178
#	122979
#	131463
#	144535
#	157164
#	168229
#	180122
#	188797
#	198745
#	210166
#	222000
#	231739
#	241492
#
# Disc length: 3331 seconds
#
# Revision: 2
# Processed by: cddbd v1.5.2PL0 Copyright (c) Steve Scherf et al.
# Submitted via: audiograbber 1.83.01
#
DISCID=480d0118
DTITLE=Clyde McPhatter - Eight Classic Albums  [CD3)
DYEAR=2014
DGENRE=Oldies
TTITLE0=Hey Love
TTITLE1=The Best Man Cried
TTITLE2=I Do Believe
TTITLE3=Without Love (There Is Nothing)
TTITLE4=Can't It Be Wrong
TTITLE5=Same TIme, Same Place
TTITLE6=Stop
TTITLE7=The Name Of The Game Is Love
TTITLE8=(You've Got Everything) From A To Z
TTITLE9=Maybe
TTITLE10=Up To My Ears In Tears
TTITLE11=Climb That Mountain Of Love
TTITLE12=Lover Please
TTITLE13=Pretty Girls Everywhere
TTITLE14=Money Honey
TTITLE15=Don't Let Go
TTITLE16=Rockin' Robin
TTITLE17=Everybody Loves A Winner
TTITLE18=Little Bitty Pretty One
TTITLE19=Such A Night
TTITLE20=Oh, Lonesome Me
TTITLE21=Next To Me
TTITLE22=Sixty Minute Man
TTITLE23=I'm Movin' On
EXTD=
EXTT0=
EXTT1=
EXTT2=
EXTT3=
EXTT4=
EXTT5=
EXTT6=
EXTT7=
EXTT8=
EXTT9=
EXTT10=
EXTT11=
EXTT12=
EXTT13=
EXTT14=
EXTT15=
EXTT16=
EXTT17=
EXTT18=
EXTT19=
EXTT20=
EXTT21=
EXTT22=
EXTT23=
PLAYORDER=
